<?xml version="1.0" encoding="UTF-8"?>
<svg id="_レイヤー_1" data-name="レイヤー 1" xmlns="http://www.w3.org/2000/svg" viewBox="0 0 640 480">
  <defs>
    <style>
      .cls-1 {
        fill: #ff4800;
      }

      .cls-2 {
        fill: #ffffbd;
      }
    </style>
  </defs>
  <g>
    <path class="cls-2" d="M73.66,308.07c-2.63,0-5.16-1.04-7.03-2.89l-18.12-17.93c-1.9-1.88-2.97-4.44-2.97-7.11v-137.83c0-5.52,4.48-10,10-10h30.26c2.65,0,5.2,1.05,7.07,2.93l17.93,17.93c1.88,1.88,2.93,4.42,2.93,7.07v70.04c13.81-7.68,28.76-22.86,38.18-52.52.92-2.9,3.12-5.23,5.96-6.31,1.15-.44,2.36-.66,3.57-.66,1.77,0,3.53.47,5.09,1.39l25.59,15.13c.72.43,1.39.94,1.98,1.54l17.93,17.93c2.77,2.77,3.67,6.91,2.29,10.58-14.13,37.68-36.86,63.75-67.56,77.5-26.04,11.66-53.05,12.56-72.76,13.22-.11,0-.22,0-.33,0Z"/>
    <path class="cls-2" d="M367.62,310.69c-2.56,0-5.12-.98-7.07-2.93l-17.93-17.93c-3.11-3.11-5.99-6.29-9.05-9.65-3.41-3.76-6.9-7.6-10.9-11.55-19.56,18.98-37.46,31.2-58.54,40.14-1.26.53-2.59.79-3.9.79-2.6,0-5.16-1.01-7.07-2.93l-17.93-17.93c-.47-.47-.88-.98-1.25-1.52l-15.69-23.53c-1.66-2.48-2.12-5.58-1.25-8.43s2.95-5.18,5.71-6.34c25.67-10.77,47.14-27.2,62.94-48.01h-31.25c-2.65,0-5.2-1.05-7.07-2.93l-17.93-17.93c-1.88-1.88-2.93-4.42-2.93-7.07v-26.71c0-5.52,4.48-10,10-10h113.37c2.65,0,5.2,1.05,7.07,2.93l17.93,17.93c2.26,2.26,3.3,5.47,2.81,8.62-2.56,16.28-7.48,37.79-22.67,63.03,8.93,7.47,14.62,12.75,23.23,21.36l20.36,20.36c1.89,1.9,2.95,4.47,2.93,7.15-.02,2.68-1.12,5.24-3.04,7.1l-23.91,23.16c-1.94,1.88-4.45,2.82-6.96,2.82Z"/>
    <path class="cls-2" d="M528.99,314.79c-2.58,0-5.14-1-7.07-2.93l-2.64-2.64c-1.33,2.68-3.8,4.64-6.73,5.31-.74.17-1.5.25-2.24.25-2.29,0-4.54-.79-6.35-2.27l-5.35-4.41-15.2,4.74c-.98.31-1.98.45-2.98.45-2.58,0-5.1-1-6.99-2.85l-4.55-4.45c-16.32,3.43-34.63,6.12-38.72,6.65-.43.06-.86.08-1.29.08-2.63,0-5.18-1.04-7.07-2.93l-17.93-17.93c-1.74-1.74-2.77-4.05-2.91-6.5l-1.49-26.33c-.27-4.82,2.92-9.06,7.46-10.24v-51.4l-.62-.59c-1.53-1.45-2.55-3.34-2.94-5.41l-5.42-28.95c-.75-3.98.98-8.02,4.38-10.22,11.32-7.35,20.1-15.3,26.11-23.62,1.88-2.6,4.9-4.15,8.11-4.15h27.08c2.74,0,5.36,1.13,7.25,3.11,1.96,2.06,3.84,3.82,5.75,5.41,1.8-2.66,4.84-4.41,8.29-4.41h77.51c2.65,0,5.2,1.05,7.07,2.93l17.93,17.93c1.88,1.88,2.93,4.42,2.93,7.07v27.83c0,3.69-2,6.92-4.98,8.65,1.17,1.67,1.8,3.67,1.8,5.73v21.67c0,.33-.02.65-.05.98-1.04,10.65-3.37,25.22-8.52,38.64l11.55,8.01c3.96,2.75,5.4,7.93,3.42,12.33l-12.89,28.58c-1.23,2.73-3.62,4.76-6.5,5.54-.86.23-1.74.35-2.61.35-2.06,0-4.08-.63-5.79-1.85-5.47-3.89-10.25-7.5-15.23-11.9-6.19,5.49-11.92,9.42-16.11,12.14-1.67,1.08-3.56,1.61-5.44,1.61Z"/>
  </g>
  <g>
    <path class="cls-1" d="M103.73,245.22c28.39-8.22,47.63-32.68,57.71-64.43l25.59,15.13,17.93,17.93c-30.26,80.68-92.08,82.92-131.3,84.23l-18.12-17.93v-137.83h30.26l17.93,17.93v84.98ZM76.09,292.09c36.79-1.31,93.01-4.29,121.96-76.76l-13.45-13.26c-29.32,71.35-86.66,76.57-120.84,77.88l12.33,12.14ZM85.8,248.58c4.86-.56,8.03-.93,11.95-1.87v-83.86l-11.95-11.95v97.68Z"/>
    <path class="cls-1" d="M367.62,300.69l-17.93-17.93c-8.22-8.22-15.5-17.74-27.27-28.01-19.05,19.61-37.54,34.36-62.19,44.82l-17.93-17.93-15.69-23.53c32.5-13.63,60.14-36.79,77.7-67.24h-49.87l-17.93-17.93v-26.71h113.37l17.93,17.93c-2.05,13.07-6.54,37.54-25.96,66.68,13.26,10.83,19.24,16.25,29.32,26.33l20.36,20.36-23.91,23.16ZM244.92,172.94l11.95,11.95h50.43c1.68-3.36,2.8-5.79,5.23-11.95h-67.61ZM261.73,292.47c27.45-12.14,48.56-33.8,56.96-42.4-8.78-8.59-10.09-9.9-14.19-13.26-15.88,16.06-33.06,31.56-56.22,42.4l13.45,13.26ZM348.76,153.33c-4.86,23.53-13.07,42.4-26.89,62.38,5.98,4.3,10.27,7.47,15.31,11.39,12.14-18.68,20.36-39.03,24.28-60.89l-12.7-12.89ZM353.99,278.65l13.63,13.82,15.5-14.94-13.82-13.82-15.32,14.94Z"/>
    <path class="cls-1" d="M416.93,193.11l-3.74-3.55-5.42-28.95c11.21-7.28,21.48-16.06,28.76-26.15h27.08c7.1,7.47,13.45,11.58,21.29,15.88v-11.77h77.51l17.93,17.93v27.83h-17.37l14.19,14.38v21.67c-.93,9.52-3.55,28.2-11.02,43.14l18.3,12.7-12.89,28.58c-8.4-5.98-14.19-10.65-21.1-17.56-7.28,7.66-14.57,13.07-21.48,17.56l-13.07-13.07c-2.24,5.79-3.36,8.22-5.6,13.07l-9.52-7.84-20.36,6.35-8.4-8.22c-17.18,3.92-38.85,7.1-43.14,7.66l-17.93-17.93-1.49-26.33c1.87-.19,6.91-.56,7.47-.56v-64.81ZM462.5,285.37c-.93-3.92-1.31-5.6-2.43-9.9-14.75,4.3-33.25,7.1-41.65,8.22l12.7,12.7c14.19-2.05,28.95-4.67,42.77-8.03l8.22,8.22,19.98-6.35,5.98,4.86c.56-1.31,1.49-3.55,2.99-8.03l-11.95-17.18c-2.05,6.54-3.55,10.08-6.54,17l-9.71-7.84-20.36,6.35ZM440.27,175.36v-8.22c-3.36,3.36-4.11,4.11-8.59,8.22h8.59ZM484.91,160.42l-8.78,13.82c-4.67-2.8-7.66-4.67-13.82-9.71v10.83h16.25v63.69h-38.29v16.81c6.16-.75,8.59-.93,12.7-1.68-.93-2.24-1.31-3.17-3.74-7.66l21.11-5.98c2.24,3.92,3.17,5.79,7.47,14.38,4.48-13.45,7.1-26.15,7.1-46.32v-48.19ZM440.27,193.11v6.72h16.44v-6.72h-16.44ZM440.27,214.59v6.91h16.44v-6.91h-16.44ZM461.56,163.79c-4.86-4.3-6.91-6.54-10.27-10.46-2.43,3.55-4.11,5.98-8.03,10.46h18.3ZM501.16,262.77c8.78-6.72,11.95-9.71,16.25-14.01-3.74-6.72-6.54-12.51-10.27-26.71-.75,17.18-3.74,32.5-5.98,40.71ZM562.42,164.16h-54.91v14.19h66.86v-19.42l-11.95-11.95v17.18ZM507.51,208.05l17.56-3.17c1.31,8.59,2.99,14.75,6.54,22.6,3.55-10.27,4.67-17,5.23-25.03h-29.32v5.6ZM529.73,297.14c6.54-4.67,11.58-8.59,17.37-14.94-6.16-4.67-9.34-7.66-14.57-12.89-4.11,4.3-7.28,7.47-16.44,14.19l13.63,13.63ZM559.24,202.45c-2.43,24.84-7.28,35.3-12.33,45.94,4.86,4.48,8.4,7.47,14.38,11.58,7.47-15.88,9.34-33.99,9.9-39.97v-18.86l-11.95-11.95v13.26ZM555.13,283.69c5.04,4.86,9.53,8.59,14.19,12.14l7.84-18.12-14.38-9.15-7.66,15.13Z"/>
  </g>
</svg>